<?xml version="1.0" encoding="UTF-8"?>
<svg width="20px" height="16px" viewBox="0 0 20 16" version="1.1" xmlns="http://www.w3.org/2000/svg" xmlns:xlink="http://www.w3.org/1999/xlink">
    <!-- Generator: Sketch 56.2 (81672) - https://sketch.com -->
    <title>Icon</title>
    <desc>Created with Sketch.</desc>
    <g id="----Icons" stroke="none" stroke-width="1" fill="none" fill-rule="evenodd">
        <g id="Icons-/-Directional-/-Return-Arrow" transform="translate(-2.000000, -4.000000)" fill="#333333">
            <path d="M2.00006792,11.9882234 C1.99854594,11.864591 2.02255122,11.7379924 2.0773482,11.613692 C2.13971785,11.4649055 2.23702742,11.3343924 2.35901411,11.2324156 L9.28174854,4.30968114 C10.2207954,3.37063426 11.6293657,4.77920458 10.6903189,5.71825146 L5.40857032,11 L21,11 C21.5522847,11 22,11.4477153 22,12 C22,12.5522847 21.5522847,13 21,13 L5.40857032,13 L10.6903189,18.2817485 C11.6293657,19.2207954 10.2207954,20.6293657 9.28174854,19.6903189 L2.35901411,12.7675844 C2.23702742,12.6656076 2.13971785,12.5350945 2.0773482,12.386308 C2.02255122,12.2620076 1.99854594,12.135409 2.00006792,12.0117766 C2.00002268,12.0078565 2,12.0039309 2,12 C2,11.9960691 2.00002268,11.9921435 2.00006792,11.9882234 Z" id="Icon"></path>
        </g>
    </g>
</svg>