<?xml version="1.0" encoding="UTF-8"?>
<svg width="20px" height="18px" viewBox="0 0 20 18" version="1.1" xmlns="http://www.w3.org/2000/svg" xmlns:xlink="http://www.w3.org/1999/xlink">
    <!-- Generator: Sketch 56.2 (81672) - https://sketch.com -->
    <title>Path</title>
    <desc>Created with Sketch.</desc>
    <g id="----Icons" stroke="none" stroke-width="1" fill="none" fill-rule="evenodd">
        <g id="Icons-/-Supplemental-/-Calendar" transform="translate(-2.000000, -3.000000)" fill="#187ABA">
            <path d="M20.0384615,5.25 L17.3846154,5.25 L17.3846154,3.75 C17.3846154,3.33578644 17.040219,3 16.6153846,3 C16.1905502,3 15.8461538,3.33578644 15.8461538,3.75 L15.8461538,5.25 L8.15384615,5.25 L8.15384615,3.75 C8.15384615,3.33578644 7.80944981,3 7.38461538,3 C6.95978096,3 6.61538462,3.33578644 6.61538462,3.75 L6.61538462,5.25 L3.96153846,5.25 C2.87996212,5.2541113 2.00421672,6.10796307 2,7.1625 L2,19.0875 C2.00421672,20.1420369 2.87996212,20.9958887 3.96153846,21 L20.0384615,21 C21.1200379,20.9958887 21.9957833,20.1420369 22,19.0875 L22,7.1625 C21.9957833,6.10796307 21.1200379,5.2541113 20.0384615,5.25 Z M20.4615385,19.0875 C20.4574324,19.3136384 20.2703984,19.4959966 20.0384615,19.5 L3.96153846,19.5 C3.72960159,19.4959966 3.54256757,19.3136384 3.53846154,19.0875 L3.53846154,7.1625 C3.54256757,6.93636155 3.72960159,6.75400339 3.96153846,6.75 L6.61538462,6.75 L6.61538462,8.25 C6.61538462,8.66421356 6.95978096,9 7.38461538,9 C7.80944981,9 8.15384615,8.66421356 8.15384615,8.25 L8.15384615,6.75 L15.8461538,6.75 L15.8461538,8.25 C15.8461538,8.66421356 16.1905502,9 16.6153846,9 C17.040219,9 17.3846154,8.66421356 17.3846154,8.25 L17.3846154,6.75 L20.0384615,6.75 C20.2703984,6.75400339 20.4574324,6.93636155 20.4615385,7.1625 L20.4615385,19.0875 Z" id="Icon"></path>
        </g>
    </g>
</svg>