<?xml version="1.0" encoding="UTF-8"?>
<svg width="20px" height="14px" viewBox="0 0 20 14" version="1.1" xmlns="http://www.w3.org/2000/svg" xmlns:xlink="http://www.w3.org/1999/xlink">
    <!-- Generator: Sketch 56.2 (81672) - https://sketch.com -->
    <title>Button / Icon / Dark Theme - Default</title>
    <desc>Created with Sketch.</desc>
    <g id="----Components" stroke="none" stroke-width="1" fill="none" fill-rule="evenodd">
        <g id="Header-+-Footer-/-Header-/-~Elements-/-NAV-Bar-/-Desktop" transform="translate(-1118.000000, -25.000000)">
            <g id="Navigation">
                <g id="Icons-buttons" transform="translate(1056.000000, 8.000000)">
                    <g id="Button-/-Icon-/-Dark-Theme---Default" transform="translate(48.000000, 0.000000)">
                        <circle id="BG" cx="24" cy="24" r="24"></circle>
                        <g id="Icons-/-Supplemental-/-Not-in-KS-/-Cloud---upload" transform="translate(12.000000, 12.000000)" fill="#FFFFFF" fill-rule="evenodd" stroke-width="1">
                            <g id="Icons-/-Supplemental-/-Not-in-KS-/-Cloud-upload" transform="translate(2.000000, 5.000000)">
                                <path d="M13,14 L13,12.6 L16.3638095,12.6 C17.5685714,12.6 18.5714286,11.5696 18.5714286,10.2666667 C18.5714286,8.96373333 17.5685714,7.93333333 16.3638095,7.93333333 C15.6133333,7.93333333 14.9904762,7.364 14.9390476,6.62946667 C14.7314286,3.67826667 12.3685714,1.4 9.54571429,1.4 C6.68571429,1.4 4.31142857,3.7352 4.17142857,6.72466667 C4.14190476,7.33506667 3.71333333,7.8568 3.11047619,8.0136 C2.13809524,8.26653333 1.42857143,9.184 1.42857143,10.2666667 C1.42857143,11.5696 2.43333333,12.6 3.63714286,12.6 L7,12.6 L7,14 L3.63714286,14 C1.62857143,14 0,12.3284 0,10.2666667 C0,8.5232 1.17047619,7.07 2.74380952,6.66026667 C2.91809524,2.95306667 5.89238095,0 9.54571429,0 C13.1590476,0 16.107619,2.8868 16.3638095,6.53333333 C18.3714286,6.53333333 20,8.20493333 20,10.2666667 C20,12.3284 18.3714286,14 16.3638095,14 L13,14 Z M9.25,14 L9.25,8 L8,8 L10,6 L12,8 L10.75,8 L10.75,14 L9.25,14 Z" id="Icon"></path>
                            </g>
                        </g>
                    </g>
                </g>
            </g>
        </g>
    </g>
</svg>