<?xml version="1.0" encoding="UTF-8"?>
<svg width="17px" height="20px" viewBox="0 0 17 20" version="1.1" xmlns="http://www.w3.org/2000/svg" xmlns:xlink="http://www.w3.org/1999/xlink">
    <!-- Generator: Sketch 56.2 (81672) - https://sketch.com -->
    <title>Icon</title>
    <desc>Created with Sketch.</desc>
    <g id="----Icons" stroke="none" stroke-width="1" fill="none" fill-rule="evenodd">
        <g id="Icons-/-Actionable-/-Save" transform="translate(-4.000000, -2.000000)" fill="#187ABA">
            <path d="M11.8756516,16.971291 L6.17400555,11.5594087 C5.85058535,11.2015387 5.87233016,10.6680769 6.22391807,10.3349133 C6.57550597,10.0017497 7.1384687,9.98114436 7.51612924,10.2876164 L11.5996119,14.1571122 L11.5996119,2.90198038 C11.5996119,2.40383037 12.0257745,2 12.5514727,2 C13.0771709,2 13.5033335,2.40383037 13.5033335,2.90198038 L13.5033335,14.1571122 L17.5963348,10.2876164 C17.9739953,9.98114436 18.5369581,10.0017497 18.888546,10.3349133 C19.2401339,10.6680769 19.2618787,11.2015387 18.9384585,11.5594087 L13.2272939,16.971291 C13.0485662,17.1420473 12.8052745,17.2380952 12.5514727,17.2380952 C12.2976709,17.2380952 12.0543792,17.1420473 11.8756516,16.971291 Z M20.0555556,20.0952381 C20.5771578,20.0952381 21,20.5216336 21,21.047619 C21,21.5736045 20.5771578,22 20.0555556,22 L4.94444444,22 C4.42284218,22 4,21.5736045 4,21.047619 C4,20.5216336 4.42284218,20.0952381 4.94444444,20.0952381 L20.0555556,20.0952381 Z" id="Icon"></path>
        </g>
    </g>
</svg>