<?xml version="1.0" encoding="UTF-8"?>
<svg width="20px" height="20px" viewBox="0 0 20 20" version="1.1" xmlns="http://www.w3.org/2000/svg" xmlns:xlink="http://www.w3.org/1999/xlink">
    <!-- Generator: Sketch 56.2 (81672) - https://sketch.com -->
    <title>Icons / Alerts / Soft Warning Inline</title>
    <desc>Created with Sketch.</desc>
    <g id="----Elements" stroke="none" stroke-width="1" fill="none" fill-rule="evenodd">
        <g id="Notification-/-Message-Box-/-Error-/-Simple" transform="translate(-18.000000, -18.000000)" fill="#AA0000">
            <g id="Notification-/-Message-Box-/-Information-/-Simple">
                <g id="Icons-/-Alerts-/-Error" transform="translate(16.000000, 16.000000)">
                    <path d="M12,2 C14.6521649,2 17.195704,3.0535684 19.0710678,4.92893219 C20.9464316,6.80429597 22,9.3478351 22,12 C22,17.5228475 17.5228475,22 12,22 C6.4771525,22 2,17.5228475 2,12 C2,6.4771525 6.4771525,2 12,2 Z M12,3.66666667 C7.39762708,3.66666667 3.66666667,7.39762708 3.66666667,12 C3.66666667,16.6023729 7.39762708,20.3333333 12,20.3333333 C16.6023729,20.3333333 20.3333333,16.6023729 20.3333333,12 C20.3333333,7.39762708 16.6023729,3.66666667 12,3.66666667 Z M11.1666667,15.125 C11.0034533,14.9650744 10.9130709,14.745144 10.9166667,14.5166667 C10.9107566,14.2853145 11.0013203,14.0619239 11.1666667,13.9 C11.33451,13.7280543 11.5684046,13.6369265 11.8083333,13.65 C12.0497693,13.6427322 12.2839933,13.7328184 12.4583333,13.9 C12.6267439,14.0604868 12.7204045,14.2840637 12.7166667,14.5166667 C12.7245024,14.7476228 12.6299603,14.9702541 12.4583333,15.125 C12.2812033,15.286798 12.0481408,15.3734494 11.8083333,15.3666667 C11.5707833,15.3748554 11.3397958,15.2878601 11.1666667,15.125 Z M11.1666667,8.075 L12.55,8.075 L12.4,12.8916667 L11.2666667,12.8916667 L11.1666667,8.075 Z" id="Icon"></path>
                </g>
            </g>
        </g>
    </g>
</svg>