<?xml version="1.0" encoding="UTF-8"?>
<svg width="264px" height="39px" viewBox="0 0 264 39" version="1.1" xmlns="http://www.w3.org/2000/svg" xmlns:xlink="http://www.w3.org/1999/xlink">
    <!-- Generator: Sketch 56.2 (81672) - https://sketch.com -->
    <title>logo</title>
    <desc>Created with Sketch.</desc>
    <g id="----Elements" stroke="none" stroke-width="1" fill="none" fill-rule="evenodd">
        <g id="Logo-/-MS-White" fill="#FFFFFF">
            <path d="M185.304533,18.3313995 L185.304533,23.8304003 C185.14781,25.7284858 181.599314,28.0271385 178.704533,27.8637272 C177.110476,27.7757365 175.563352,26.489396 175.404114,24.3809708 C175.135086,20.8563141 177.786819,19.3931541 183.700419,18.7436988 C184.108571,18.7059885 184.910629,18.5601753 185.304533,18.3313995 L185.304533,18.3313995 Z M100.604114,18.3313995 L100.604114,23.8304003 C100.448229,25.7293238 96.8997333,28.0271385 94.0041143,27.8637272 C92.4075429,27.7765745 90.8679619,26.489396 90.7045333,24.3809708 C90.4396952,20.8563141 93.0880762,19.3931541 99,18.7436988 C99.4115048,18.7059885 100.207695,18.5601753 100.604114,18.3313995 L100.604114,18.3313995 Z M235.217295,10.6778831 C239.102705,10.6778831 240.840076,12.7326758 240.854324,17.1858441 L229.441981,17.1858441 C229.737829,12.7360278 231.601752,10.6778831 235.217295,10.6778831 L235.217295,10.6778831 Z M74.4337524,10.6778831 C76.3471238,10.6778831 78.0275048,11.5049958 79.613181,13.4734739 L79.613181,23.8304003 C78.7348571,26.3293367 76.2214095,27.7723845 74.4337524,27.7723845 C70.936381,27.7723845 68.5209905,25.5944047 68.5209905,19.0646555 C68.5209905,13.5740347 70.6883048,10.6778831 74.4337524,10.6778831 L74.4337524,10.6778831 Z M39.4625524,10.6317927 C43.1141333,10.6317927 45.2839619,13.8363308 45.2839619,19.2020886 C45.2839619,24.5686843 43.1141333,27.7723845 39.4625524,27.7723845 C35.8176762,27.7723845 33.641981,24.5686843 33.641981,19.2020886 C33.641981,13.8363308 35.8176762,10.6317927 39.4625524,10.6317927 L39.4625524,10.6317927 Z M246.49219,8.38677238 L254.054324,29.926062 L254.054324,30.1095855 C253.60259,32.1744343 252.296,34.7219751 251.12099,35.5172436 C250.084267,36.2211693 248.960381,36.2957519 248.096305,36.2957519 C247.678933,36.2957519 246.817371,36.1558048 246.446095,36.0669761 L246.446095,38.6790434 C246.915429,38.7946883 247.998248,39 248.69219,39 C250.308876,39 251.671619,38.5960807 252.817295,37.7622639 C254.188419,36.7658738 255.707886,34.1672146 256.437867,31.9423065 L264,8.38677238 L260.700419,8.38677238 L255.750629,25.0681364 L255.704533,25.4351834 L255.613181,25.0681364 L249.791771,8.38677238 L246.49219,8.38677238 Z M63.6625524,8.11190614 C60.2213333,8.11190614 58.1822476,9.44517501 56.4214095,12.6027848 L56.4214095,12.3740089 L56.4214095,8.43202475 L53.0296381,8.43202475 L53.0296381,30.1095855 L56.4214095,30.1095855 L56.4214095,17.8269194 C57.2586667,13.365371 59.6212571,11.2737059 63.6625524,11.2737059 L63.6625524,8.11190614 Z M204.1424,8.01972539 C201.92899,8.01972539 199.675352,9.16360472 197.7712,11.3197963 L197.7712,8.43202475 L194.379429,8.43202475 L194.379429,30.1548379 L197.7712,30.1548379 L197.7712,14.0232063 C198.926933,12.7896603 201.509105,10.7239734 203.866667,10.7239734 C206.22339,10.7239734 207.258438,11.8820989 207.258438,14.4815961 L207.258438,30.1548379 L210.65021,30.1548379 L210.65021,14.3902533 C210.65021,9.69657706 207.312076,8.01972539 204.1424,8.01972539 L204.1424,8.01972539 Z M180.813181,8.01972539 C175.998324,8.01972539 173.718705,10.9049829 172.746514,12.6941275 L175.45021,14.1153871 C175.830705,13.0930188 177.195962,10.7239734 180.858438,10.7239734 C183.746514,10.7239734 185.213181,11.9985818 185.213181,14.5276865 L185.213181,15.3070328 C185.213181,15.3070328 185.188876,15.5433507 185.12099,15.6271514 C185.01539,15.7629085 184.758933,15.8735254 184.02141,15.948108 C179.9776,16.3981177 177.289829,17.0634951 175.312762,18.3313995 C173.168076,19.7107587 171.829638,21.6415265 171.829638,24.28879 C171.829638,26.1701154 172.738971,27.7740605 173.937448,28.9179398 C175.052114,29.9713144 176.570743,30.5185328 178.246095,30.5679752 C181.813029,30.6819442 184.1664,29.1961581 185.304533,27.4514278 C185.39421,28.6497776 185.8208,29.3352672 186.7712,29.8347193 C187.660419,30.3098691 189.122057,30.2160124 189.750629,30.0634951 L189.750629,27.7723845 C188.995505,27.7346741 188.512762,27.3751692 188.512762,26.4433056 L188.512762,15.948108 L188.512762,14.5737768 C188.512762,12.4075292 187.618514,10.6309547 185.991771,9.48623735 C184.650819,8.5359376 182.82461,8.01972539 180.813181,8.01972539 L180.813181,8.01972539 Z M119.441981,8.01972539 C117.234438,8.01972539 114.975771,9.16360472 113.070781,11.3197963 L113.070781,8.43202475 L109.679848,8.43202475 L109.679848,30.1548379 L113.070781,30.1548379 L113.070781,14.0232063 C114.224838,12.7904983 116.812038,10.7239734 119.167086,10.7239734 C121.528,10.7239734 122.558857,11.8820989 122.558857,14.4815961 L122.558857,30.1548379 L125.950629,30.1548379 L125.950629,14.3902533 C125.950629,9.69657706 122.612495,8.01972539 119.441981,8.01972539 L119.441981,8.01972539 Z M96.1127619,8.01972539 C91.2962286,8.01972539 89.0149333,10.9049829 88.0460952,12.6941275 L90.7506286,14.1153871 C91.1294476,13.0930188 92.496381,10.7239734 96.1588571,10.7239734 C99.0469333,10.7239734 100.512762,11.9985818 100.512762,14.5276865 L100.512762,15.3070328 C100.512762,15.3070328 100.536229,15.5433507 100.466667,15.6271514 C100.360229,15.7629085 100.056,15.8735254 99.3209905,15.948108 C95.278019,16.3989557 92.5902476,17.0634951 90.613181,18.3313995 C88.466819,19.7107587 87.129219,21.6415265 87.129219,24.28879 C87.129219,26.1701154 88.0402286,27.7748985 89.2378667,28.9179398 C90.3516952,29.9713144 91.8694857,30.5185328 93.5465143,30.5679752 C97.1159619,30.6819442 99.465981,29.1961581 100.604114,27.4514278 C100.692952,28.6497776 101.122895,29.3352672 102.070781,29.8347193 C102.961676,30.3098691 104.423314,30.2160124 105.05021,30.0634951 L105.05021,27.7723845 C104.294248,27.7346741 103.813181,27.3751692 103.813181,26.4433056 L103.813181,15.948108 L103.813181,14.5737768 C103.813181,12.4075292 102.962514,10.6309547 101.337448,9.48623735 C99.9981714,8.5359376 98.1258667,8.01972539 96.1127619,8.01972539 L96.1127619,8.01972539 Z M74.2049524,8.01972539 C70.3782095,8.01972539 64.9465143,10.5949204 64.9465143,19.2481789 C64.9465143,27.6500355 70.3614476,30.4757945 74.0214095,30.4757945 C76.1577143,30.4757945 78.0987429,29.2925288 79.4296381,27.588861 L79.613181,27.4975182 L79.613181,31.6213498 C79.613181,34.5149874 77.1089524,36.2957519 74.4337524,36.2957519 C71.8323048,36.2957519 69.5300571,35.7996519 67.6502095,34.9214207 L67.6502095,37.8544447 C69.2333714,38.5323922 71.8096762,38.9539096 74.0214095,38.9539096 C80.0414476,38.9539096 82.9127619,35.6404306 82.9127619,30.8428415 L82.9127619,8.43202475 L80.3917714,8.43202475 L79.6584381,10.7239734 C78.4138667,9.10243022 76.7854476,8.01972539 74.2049524,8.01972539 L74.2049524,8.01972539 Z M235.125105,7.97447302 C233.676038,7.97447302 232.327543,8.24012119 231.183543,8.75298137 C230.063848,9.25746148 229.069867,10.0175337 228.296305,10.9988397 C226.7584,12.9245794 225.866667,15.7838587 225.866667,19.2481789 C225.866667,23.1030104 226.975467,26.0444144 228.983543,28.0011603 C231.103086,30.0693612 233.80259,30.4757945 235.675733,30.4757945 C240.541714,30.4757945 242.929448,27.843615 243.925105,25.4351834 L241.22141,24.1061046 C240.564343,25.5726165 239.053257,27.8176368 235.675733,27.8176368 C233.744762,27.8176368 232.16579,27.0273964 231.046095,25.5726165 C229.964114,24.163927 229.356495,22.2147231 229.350629,19.8892542 L244.2,19.8892542 L244.2,17.8269194 C244.2,14.2645523 243.252114,11.6089087 241.496305,9.99071746 C240.001981,8.61638626 237.905067,7.97447302 235.125105,7.97447302 L235.125105,7.97447302 Z M39.4625524,7.92838265 C36.6071619,7.92838265 34.1859048,9.07896603 32.4963048,11.2276155 C30.9273905,13.2338039 30.0666667,16.067105 30.0666667,19.2020886 C30.0666667,22.3404242 30.9273905,25.1678592 32.4963048,27.1765616 C34.1859048,29.3310772 36.6071619,30.4757945 39.4625524,30.4757945 C42.3305143,30.4757945 44.7442286,29.3310772 46.4296381,27.1765616 C47.9985524,25.1678592 48.8584381,22.3404242 48.8584381,19.2020886 C48.8584381,16.067105 47.9985524,13.2338039 46.4296381,11.2276155 C44.7442286,9.07896603 42.3305143,7.92838265 39.4625524,7.92838265 L39.4625524,7.92838265 Z M161.471619,1.28298846 L161.471619,8.34068201 L158.217295,8.34068201 L158.217295,11.0449301 L161.471619,11.0449301 L161.471619,27.0843808 C161.471619,28.4226778 162.080076,29.2045381 162.8,29.6972861 C163.575238,30.2160124 164.706667,30.4757945 166.237867,30.4757945 C167.206705,30.4757945 168.529219,30.1548379 168.529219,30.1548379 L168.529219,27.7262941 C168.152914,27.7497583 167.758171,27.7723845 167.383543,27.7723845 C165.103924,27.7723845 164.862552,26.8824212 164.862552,25.8927351 L164.862552,11.0449301 L168.529219,11.0449301 L168.529219,8.34068201 L164.862552,8.34068201 L164.862552,1.28298846 L161.471619,1.28298846 Z M0,0.687165603 L0,30.1095855 L3.39177143,30.1095855 L3.39177143,3.20789016 L3.4839619,3.30007091 L11.5506286,30.1095855 L14.1629714,30.1095855 L22.2757333,3.30007091 L22.3209905,3.20789016 L22.3209905,30.1095855 L25.7127619,30.1095855 L25.7127619,0.687165603 L20.0757333,0.687165603 L12.8798476,24.3348804 L12.8798476,24.4262232 L12.8337524,24.3348804 L5.63786667,0.687165603 L0,0.687165603 Z M144.9712,0.274866241 C142.41501,0.274866241 140.103543,1.07683878 138.462552,2.52072455 C136.869333,3.92857603 135.987657,5.87275189 135.987657,7.97447302 C135.987657,10.2882099 136.92381,12.0966286 138.875733,13.5195642 C140.595505,14.7757365 142.871771,15.5869271 145.062552,16.3604074 C148.871695,17.7154644 152.441981,18.9523625 152.441981,22.4099787 C152.441981,23.9477213 151.91901,25.265906 150.929219,26.1684394 C149.84221,27.1589635 148.276648,27.6349513 146.209067,27.6349513 C142.583467,27.6349513 139.944305,25.627925 138.462552,21.7228131 L135.209067,22.5935022 C135.908876,24.1773351 137.101486,26.4625798 138.829638,28.0011603 C140.724571,29.7006382 143.075429,30.5218849 146.025524,30.5218849 C149.518705,30.5218849 152.170438,29.6210275 153.908648,27.8176368 C155.709714,25.9413395 156.108648,23.5396119 156.108648,21.8602462 C156.108648,19.4543286 155.0912,17.5964675 153.037867,16.1316315 C151.244343,14.845291 148.925333,14.0173403 146.666667,13.244698 C142.988267,11.9868497 139.477486,10.789338 139.516876,7.69876877 C139.530286,6.25823503 140.02979,5.13614388 140.937448,4.3534455 C141.863543,3.55901502 143.181867,3.16179978 144.879848,3.16179978 C146.662476,3.16179978 148.251505,3.66041385 149.462552,4.62831174 C150.576381,5.51073293 151.386819,6.81969961 151.754743,8.29459163 L154.916876,7.88229227 C153.529829,3.15258171 150.138895,0.274866241 144.9712,0.274866241 L144.9712,0.274866241 Z M216.609067,0 L216.609067,27.0843808 C216.609067,28.4226778 217.308876,29.2045381 218.029638,29.6972861 C218.8032,30.2160124 219.937143,30.4757945 221.466667,30.4757945 C222.434667,30.4757945 223.712762,30.1548379 223.712762,30.1548379 L223.712762,27.7262941 C223.328914,27.7497583 222.989486,27.7723845 222.613181,27.7723845 C220.336076,27.7723845 220,26.8824212 220,25.8927351 L220,0 L216.609067,0 Z" id="logo"></path>
        </g>
    </g>
</svg>