<?xml version="1.0" encoding="UTF-8"?>
<svg width="83px" height="80px" viewBox="0 0 83 80" version="1.1" xmlns="http://www.w3.org/2000/svg" xmlns:xlink="http://www.w3.org/1999/xlink">
    <!-- Generator: Sketch 56.2 (81672) - https://sketch.com -->
    <title>Icon</title>
    <desc>Created with Sketch.</desc>
    <g id="----Icons" stroke="none" stroke-width="1" fill="none" fill-rule="evenodd">
        <g id="Icons-/-Hero-/-Pledge" transform="translate(-25.000000, -26.000000)" fill="#333333">
            <path d="M100.208361,75.1384333 C100.204751,74.9513657 100.199352,74.7610684 100.192187,74.5673329 C99.97473,68.6870378 98.7451774,65.4032999 95.4025342,61.1256372 C91.5043239,56.1370017 86.0557134,52.492935 81.1464182,52.492935 L56.4123132,52.492935 C56.1696954,52.492935 55.9424014,52.3741448 55.8036374,52.1748241 C53.4639475,48.8140906 51.2344767,46.5812231 49.1395803,45.4704705 C47.2314523,44.458746 44.3804265,44.1130947 40.594747,44.4644973 L44.2530954,55.239175 C44.3482685,55.5194816 44.2682309,55.8296265 44.0493613,56.0286426 C41.8446201,58.0333928 40.226376,59.7309248 39.1986916,61.1117557 C38.1721067,62.4911095 36.8915964,64.7669284 35.3693994,67.926662 C35.2456257,68.1835879 34.9859306,68.3468802 34.701097,68.3468802 L26.4840463,68.3468802 L26.4840463,85.6871327 L37.6143935,85.6871327 C37.850675,85.6871327 38.0728314,85.7998339 38.2126217,85.9906172 C40.3284853,88.878309 41.950899,90.8281717 43.0568889,91.8224923 C44.1433179,92.799227 45.7138178,93.7324279 47.7669521,94.6121193 C48.0400164,94.7291171 48.2171164,94.9979174 48.2171164,95.2953733 L48.2171164,104.513693 L59.6306067,104.513693 L59.6601655,96.8473176 L57.2078581,96.8473176 C56.9050935,96.8473176 56.6596543,96.5145963 56.6596543,96.1041639 C56.6596543,95.6937314 56.9050935,95.3610102 57.2078581,95.3610102 L60.1794334,95.3610102 L60.1794334,95.3959917 C60.2505881,95.3732712 60.3263987,95.3610102 60.4050595,95.3610102 L74.2208688,95.3610102 L77.1889614,95.3610102 C77.5987694,95.3610102 77.9309845,95.6937314 77.9309845,96.1041639 C77.9309845,96.5145963 77.5987694,96.8473176 77.1889614,96.8473176 L74.9600321,96.8473176 L74.9304733,104.513693 L87.3299444,104.513693 L87.3299444,95.3481306 C87.3299444,95.092595 87.4610321,94.8549819 87.6770391,94.7189777 C91.9604474,92.0220204 94.8494383,89.4501159 96.3453289,87.0299956 C96.3225601,87.066832 96.9647335,86.0310096 97.1363727,85.7511959 C97.4232728,85.2834787 97.6523905,84.9003581 97.8626536,84.5339815 C99.5285547,81.6312037 100.242306,79.1909088 100.212926,75.472441 C100.18523,75.3592644 100.1851,75.2455062 100.208361,75.1384333 Z M101.666931,74.3010952 C105.020216,73.1901685 106.576524,71.3957056 106.514079,68.8736177 C106.443694,66.030809 105.173937,64.1479522 102.630572,63.1019829 C102.25148,62.9460798 102.070358,62.5119123 102.226024,62.1322427 C102.38169,61.7525731 102.815197,61.5711746 103.194289,61.7270778 C106.286951,62.998948 107.912823,65.4098681 107.99767,68.8367734 C108.081276,72.2135726 105.913922,74.5679058 101.697208,75.8499015 C101.674999,79.6322776 100.883842,82.2522766 99.1493087,85.2746433 C98.9308559,85.6552901 98.6947219,86.0501432 98.4008625,86.5292057 C98.2270437,86.8125728 97.5826854,87.8519192 97.6071617,87.8123204 C96.0148402,90.388451 93.0833777,93.0284854 88.8139907,95.7571104 L88.8139907,105.256846 C88.8139907,105.667279 88.4817756,106 88.0719675,106 L74.1855793,106 C73.7746518,106 73.4419749,105.665527 73.4435617,105.253977 L73.4759748,96.8473176 L61.1442229,96.8473176 L61.1117876,105.259716 C61.1102095,105.669025 60.7784596,106 60.36977,106 L47.4750932,106 C47.0652852,106 46.7330701,105.667279 46.7330701,105.256846 L46.7330701,95.7816427 C44.7573024,94.89847 43.2018449,93.950114 42.0655401,92.9285394 C40.9053121,91.8854571 39.3034406,89.9724046 37.2392487,87.1734401 L25.7420231,87.1734401 C25.3322151,87.1734401 25,86.8407189 25,86.4302864 L25,67.6037265 C25,67.1932941 25.3322151,66.8605728 25.7420231,66.8605728 L34.2363275,66.8605728 C35.7079059,63.838962 36.9618379,61.6302604 38.0088238,60.2234953 C39.044007,58.8325885 40.603862,57.1799533 42.6918325,55.2575521 L38.8906052,44.0620631 C38.7385173,43.6141293 39.0375388,43.1397938 39.5067299,43.0847091 C44.0225171,42.5545399 47.4614704,42.8989592 49.8339474,44.1568901 C52.0997577,45.3582643 54.4135511,47.6432583 56.7975375,51.0066276 C65.27682,51.0066276 65.3741587,51.0066276 71.9947993,51.0066276 L81.1464182,51.0066276 C86.6029956,51.0066276 92.4198256,54.896962 96.571228,60.2096137 C100.06372,64.6790421 101.415099,68.232683 101.666931,74.3010952 Z M71.2527762,45.3219957 C65.9252713,45.3219957 61.6064753,40.9966196 61.6064753,35.6609978 C61.6064753,30.3253761 65.9252713,26 71.2527762,26 C76.5802811,26 80.8990771,30.3253761 80.8990771,35.6609978 C80.8990771,40.9966196 76.5802811,45.3219957 71.2527762,45.3219957 Z M71.2527762,43.8356883 C75.7606649,43.8356883 79.4150308,40.1757547 79.4150308,35.6609978 C79.4150308,31.146241 75.7606649,27.4863074 71.2527762,27.4863074 C66.7448874,27.4863074 63.0905216,31.146241 63.0905216,35.6609978 C63.0905216,40.1757547 66.7448874,43.8356883 71.2527762,43.8356883 Z M48.4973997,74.0572713 C45.9019486,74.0572713 43.7979197,71.9500369 43.7979197,69.3506314 C43.7979197,66.7512259 45.9019486,64.6439914 48.4973997,64.6439914 C51.0928508,64.6439914 53.1968796,66.7512259 53.1968796,69.3506314 C53.1968796,71.9500369 51.0928508,74.0572713 48.4973997,74.0572713 Z M48.4973997,72.570964 C50.2732346,72.570964 51.7128333,71.129172 51.7128333,69.3506314 C51.7128333,67.5720908 50.2732346,66.1302988 48.4973997,66.1302988 C46.7215647,66.1302988 45.281966,67.5720908 45.281966,69.3506314 C45.281966,71.129172 46.7215647,72.570964 48.4973997,72.570964 Z M62.3484984,60.928223 C61.9386904,60.928223 61.6064753,60.5955018 61.6064753,60.1850693 C61.6064753,59.7746369 61.9386904,59.4419156 62.3484984,59.4419156 L80.157054,59.4419156 C80.566862,59.4419156 80.8990771,59.7746369 80.8990771,60.1850693 C80.8990771,60.5955018 80.566862,60.928223 80.157054,60.928223 L62.3484984,60.928223 Z" id="Icon"></path>
        </g>
    </g>
</svg>