<?xml version="1.0" encoding="UTF-8"?>
<svg width="20px" height="20px" viewBox="0 0 20 20" version="1.1" xmlns="http://www.w3.org/2000/svg" xmlns:xlink="http://www.w3.org/1999/xlink">
    <!-- Generator: Sketch 56.2 (81672) - https://sketch.com -->
    <title>Button / Icon / Dark Theme - Default</title>
    <desc>Created with Sketch.</desc>
    <g id="----Components" stroke="none" stroke-width="1" fill="none" fill-rule="evenodd">
        <g id="Header-+-Footer-/-Header-/-~Elements-/-NAV-Bar-/-Desktop" transform="translate(-1214.000000, -22.000000)">
            <g id="Navigation">
                <g id="Icons-buttons" transform="translate(1056.000000, 8.000000)">
                    <g id="Button-/-Icon-/-Dark-Theme---Default" transform="translate(144.000000, 0.000000)">
                        <circle id="BG" cx="24" cy="24" r="24"></circle>
                        <g id="Icons-/-Alerts-/-Info" transform="translate(12.000000, 12.000000)" fill="#FFFFFF" fill-rule="evenodd">
                            <path d="M12,22 C6.4771525,22 2,17.5228475 2,12 C2,6.4771525 6.4771525,2 12,2 C17.5228475,2 22,6.4771525 22,12 C22,17.5228475 17.5228475,22 12,22 Z M12,20 C16.418278,20 20,16.418278 20,12 C20,7.581722 16.418278,4 12,4 C7.581722,4 4,7.581722 4,12 C4,16.418278 7.581722,20 12,20 Z M11,11 L11,17 L13,17 L13,11 L11,11 Z M12,10 C12.5522847,10 13,9.55228475 13,9 C13,8.44771525 12.5522847,8 12,8 C11.4477153,8 11,8.44771525 11,9 C11,9.55228475 11.4477153,10 12,10 Z" id="Icon"></path>
                        </g>
                    </g>
                </g>
            </g>
        </g>
    </g>
</svg>