<?xml version="1.0" encoding="UTF-8"?>
<svg width="112px" height="17px" viewBox="0 0 112 17" version="1.1" xmlns="http://www.w3.org/2000/svg" xmlns:xlink="http://www.w3.org/1999/xlink">
    <!-- Generator: Sketch 56.2 (81672) - https://sketch.com -->
    <title>Logo / MS Black</title>
    <desc>Created with Sketch.</desc>
    <g id="UI-B" stroke="none" stroke-width="1" fill="none" fill-rule="evenodd">
        <g id="B2-1.0" transform="translate(-32.000000, -24.000000)" fill="#333333">
            <g id="Nav-Left">
                <g id="Search">
                    <g id="Logo-/-MS-Black" transform="translate(32.000000, 24.000000)">
                        <path d="M78.6140444,7.79084478 L78.6140444,10.1279201 C78.5475556,10.9346065 77.0421333,11.9115339 75.8140444,11.8420841 C75.1377778,11.804688 74.4814222,11.2579933 74.4138667,10.3619126 C74.2997333,8.86393348 75.4247111,8.2420905 77.9335111,7.966072 C78.1066667,7.95004512 78.4469333,7.88807452 78.6140444,7.79084478 L78.6140444,7.79084478 Z M42.6805333,7.79084478 L42.6805333,10.1279201 C42.6144,10.9349626 41.1089778,11.9115339 39.8805333,11.8420841 C39.2032,11.8050442 38.5500444,11.2579933 38.4807111,10.3619126 C38.3683556,8.86393348 39.4919111,8.2420905 42,7.966072 C42.1745778,7.95004512 42.5123556,7.88807452 42.6805333,7.79084478 L42.6805333,7.79084478 Z M99.7891556,4.5381003 C101.437511,4.5381003 102.174578,5.41138722 102.180622,7.30398376 L97.3390222,7.30398376 C97.4645333,5.41281184 98.2552889,4.5381003 99.7891556,4.5381003 L99.7891556,4.5381003 Z M31.5779556,4.5381003 C32.3896889,4.5381003 33.1025778,4.88962322 33.7752889,5.72622639 L33.7752889,10.1279201 C33.4026667,11.1899681 32.3363556,11.8032634 31.5779556,11.8032634 C30.0942222,11.8032634 29.0695111,10.877622 29.0695111,8.10247857 C29.0695111,5.76896474 29.9889778,4.5381003 31.5779556,4.5381003 L31.5779556,4.5381003 Z M16.7416889,4.51851189 C18.2908444,4.51851189 19.2113778,5.8804406 19.2113778,8.16088764 C19.2113778,10.4416908 18.2908444,11.8032634 16.7416889,11.8032634 C15.1953778,11.8032634 14.2723556,10.4416908 14.2723556,8.16088764 C14.2723556,5.8804406 15.1953778,4.51851189 16.7416889,4.51851189 L16.7416889,4.51851189 Z M104.572444,3.56437826 L107.780622,12.7185764 L107.780622,12.7965738 C107.588978,13.6741346 107.034667,14.7568394 106.536178,15.0948285 C106.096356,15.393997 105.619556,15.4256946 105.252978,15.4256946 C105.075911,15.4256946 104.7104,15.366217 104.552889,15.3284648 L104.552889,16.4385934 C104.752,16.4877425 105.211378,16.575 105.505778,16.575 C106.191644,16.575 106.769778,16.4033343 107.255822,16.0489622 C107.837511,15.6254964 108.482133,14.5210662 108.791822,13.5754802 L112,3.56437826 L110.600178,3.56437826 L108.500267,10.653958 L108.480711,10.8099529 L108.441956,10.653958 L105.972267,3.56437826 L104.572444,3.56437826 Z M27.0083556,3.44756011 C25.5484444,3.44756011 24.6833778,4.01419938 23.9363556,5.35618352 L23.9363556,5.25895378 L23.9363556,3.58361052 L22.4974222,3.58361052 L22.4974222,12.7965738 L23.9363556,12.7965738 L23.9363556,7.57644073 C24.2915556,5.68028267 25.2938667,4.79132502 27.0083556,4.79132502 L27.0083556,3.44756011 Z M86.6058667,3.40838329 C85.6668444,3.40838329 84.7107556,3.89453201 83.9029333,4.81091343 L83.9029333,3.58361052 L82.464,3.58361052 L82.464,12.8158061 L83.9029333,12.8158061 L83.9029333,5.9598627 C84.3932444,5.43560562 85.4887111,4.55768871 86.4888889,4.55768871 C87.4887111,4.55768871 87.9278222,5.04989203 87.9278222,6.15467833 L87.9278222,12.8158061 L89.3667556,12.8158061 L89.3667556,6.11585767 C89.3667556,4.12104525 87.9505778,3.40838329 86.6058667,3.40838329 L86.6058667,3.40838329 Z M76.7086222,3.40838329 C74.6659556,3.40838329 73.6988444,4.63461774 73.2864,5.39500419 L74.4334222,5.99903952 C74.5948444,5.56453297 75.1740444,4.55768871 76.7278222,4.55768871 C77.9530667,4.55768871 78.5752889,5.09939728 78.5752889,6.17426674 L78.5752889,6.50548894 C78.5752889,6.50548894 78.5649778,6.60592406 78.5361778,6.64153935 C78.4913778,6.69923612 78.3825778,6.74624831 78.0696889,6.77794592 C76.3541333,6.96920003 75.2138667,7.25198543 74.3751111,7.79084478 C73.4652444,8.37707246 72.8974222,9.19764875 72.8974222,10.3227358 C72.8974222,11.122299 73.2832,11.8039757 73.7916444,12.2901244 C74.2645333,12.7378086 74.9088,12.9703765 75.6195556,12.9913895 C77.1328,13.0398263 78.1312,12.4083672 78.6140444,11.6668568 C78.6520889,12.1761555 78.8330667,12.4674886 79.2362667,12.6797557 C79.6135111,12.8816944 80.2336,12.8418053 80.5002667,12.7769854 L80.5002667,11.8032634 C80.1799111,11.7872365 79.9751111,11.6344469 79.9751111,11.2384049 L79.9751111,6.77794592 L79.9751111,6.19385515 C79.9751111,5.2731999 79.5957333,4.51815574 78.9056,4.03165087 C78.3367111,3.62777348 77.5619556,3.40838329 76.7086222,3.40838329 L76.7086222,3.40838329 Z M50.6723556,3.40838329 C49.7358222,3.40838329 48.7776,3.89453201 47.9694222,4.81091343 L47.9694222,3.58361052 L46.5308444,3.58361052 L46.5308444,12.8158061 L47.9694222,12.8158061 L47.9694222,5.9598627 C48.4590222,5.43596177 49.5566222,4.55768871 50.5557333,4.55768871 C51.5573333,4.55768871 51.9946667,5.04989203 51.9946667,6.15467833 L51.9946667,12.8158061 L53.4336,12.8158061 L53.4336,6.11585767 C53.4336,4.12104525 52.0174222,3.40838329 50.6723556,3.40838329 L50.6723556,3.40838329 Z M40.7751111,3.40838329 C38.7317333,3.40838329 37.7639111,4.63461774 37.3528889,5.39500419 L38.5002667,5.99903952 C38.6609778,5.56453297 39.2408889,4.55768871 40.7946667,4.55768871 C42.0199111,4.55768871 42.6417778,5.09939728 42.6417778,6.17426674 L42.6417778,6.50548894 C42.6417778,6.50548894 42.6517333,6.60592406 42.6222222,6.64153935 C42.5770667,6.69923612 42.448,6.74624831 42.1361778,6.77794592 C40.4209778,6.96955618 39.2807111,7.25198543 38.4419556,7.79084478 C37.5313778,8.37707246 36.9639111,9.19764875 36.9639111,10.3227358 C36.9639111,11.122299 37.3504,11.8043319 37.8584889,12.2901244 C38.3310222,12.7378086 38.9749333,12.9703765 39.6864,12.9913895 C41.2007111,13.0398263 42.1976889,12.4083672 42.6805333,11.6668568 C42.7182222,12.1761555 42.9006222,12.4674886 43.3027556,12.6797557 C43.6807111,12.8816944 44.3008,12.8418053 44.5667556,12.7769854 L44.5667556,11.8032634 C44.2460444,11.7872365 44.0419556,11.6344469 44.0419556,11.2384049 L44.0419556,6.77794592 L44.0419556,6.19385515 C44.0419556,5.2731999 43.6810667,4.51815574 42.9916444,4.03165087 C42.4234667,3.62777348 41.6291556,3.40838329 40.7751111,3.40838329 L40.7751111,3.40838329 Z M31.4808889,3.40838329 C29.8574222,3.40838329 27.5530667,4.50284117 27.5530667,8.18047605 C27.5530667,11.7512651 29.8503111,12.9522127 31.4030222,12.9522127 C32.3093333,12.9522127 33.1328,12.4493248 33.6974222,11.7252659 L33.7752889,11.6864452 L33.7752889,13.4390737 C33.7752889,14.6688697 32.7128889,15.4256946 31.5779556,15.4256946 C30.4743111,15.4256946 29.4976,15.2148521 28.7000889,14.8416038 L28.7000889,16.088139 C29.3717333,16.3762667 30.4647111,16.5554116 31.4030222,16.5554116 C33.9569778,16.5554116 35.1751111,15.147183 35.1751111,13.1082076 L35.1751111,3.58361052 L34.1056,3.58361052 L33.7944889,4.55768871 C33.2664889,3.86853284 32.5756444,3.40838329 31.4808889,3.40838329 L31.4808889,3.40838329 Z M99.7500444,3.38915103 C99.1352889,3.38915103 98.5632,3.50205151 98.0778667,3.72001708 C97.6028444,3.93442113 97.1811556,4.25745181 96.8529778,4.67450687 C96.2005333,5.49294624 95.8222222,6.70813995 95.8222222,8.18047605 C95.8222222,9.81877941 96.2926222,11.0688761 97.1445333,11.9004931 C98.0437333,12.7794785 99.1889778,12.9522127 99.9836444,12.9522127 C102.048,12.9522127 103.060978,11.8335364 103.483378,10.8099529 L102.336356,10.2450944 C102.0576,10.868362 101.416533,11.8224956 99.9836444,11.8224956 C99.1644444,11.8224956 98.4945778,11.4866435 98.0195556,10.868362 C97.5605333,10.269669 97.3027556,9.44125733 97.3002667,8.45293302 L103.6,8.45293302 L103.6,7.57644073 C103.6,6.06243473 103.197867,4.93378618 102.452978,4.24605492 C101.819022,3.66196416 100.929422,3.38915103 99.7500444,3.38915103 L99.7500444,3.38915103 Z M16.7416889,3.36956262 C15.5303111,3.36956262 14.5031111,3.85856056 13.7863111,4.77173661 C13.1207111,5.62436666 12.7555556,6.82851963 12.7555556,8.16088764 C12.7555556,9.49468027 13.1207111,10.6963402 13.7863111,11.5500387 C14.5031111,12.4657078 15.5303111,12.9522127 16.7416889,12.9522127 C17.9584,12.9522127 18.9824,12.4657078 19.6974222,11.5500387 C20.3630222,10.6963402 20.7278222,9.49468027 20.7278222,8.16088764 C20.7278222,6.82851963 20.3630222,5.62436666 19.6974222,4.77173661 C18.9824,3.85856056 17.9584,3.36956262 16.7416889,3.36956262 L16.7416889,3.36956262 Z M68.5031111,0.545270096 L68.5031111,3.54478985 L67.1224889,3.54478985 L67.1224889,4.69409527 L68.5031111,4.69409527 L68.5031111,11.5108619 C68.5031111,12.079638 68.7612444,12.4119287 69.0666667,12.6213466 C69.3955556,12.8418053 69.8755556,12.9522127 70.5251556,12.9522127 C70.9361778,12.9522127 71.4972444,12.8158061 71.4972444,12.8158061 L71.4972444,11.783675 C71.3376,11.7936473 71.1701333,11.8032634 71.0112,11.8032634 C70.0440889,11.8032634 69.9416889,11.425029 69.9416889,11.0044124 L69.9416889,4.69409527 L71.4972444,4.69409527 L71.4972444,3.54478985 L69.9416889,3.54478985 L69.9416889,0.545270096 L68.5031111,0.545270096 Z M0,0.292045381 L0,12.7965738 L1.43893333,12.7965738 L1.43893333,1.36335332 L1.47804444,1.40253014 L4.90026667,12.7965738 L6.00853333,12.7965738 L9.45031111,1.40253014 L9.46951111,1.36335332 L9.46951111,12.7965738 L10.9084444,12.7965738 L10.9084444,0.292045381 L8.51697778,0.292045381 L5.46417778,10.3423242 L5.46417778,10.3811448 L5.44462222,10.3423242 L2.39182222,0.292045381 L0,0.292045381 Z M61.5029333,0.116818153 C60.4184889,0.116818153 59.4378667,0.457656482 58.7416889,1.07130794 C58.0657778,1.66964481 57.6917333,2.49591955 57.6917333,3.38915103 C57.6917333,4.3724892 58.0888889,5.14106717 58.9169778,5.7458148 C59.6465778,6.279688 60.6122667,6.62444401 61.5416889,6.95317315 C63.1576889,7.52907239 64.6723556,8.05475408 64.6723556,9.52424096 C64.6723556,10.1777815 64.4504889,10.7380101 64.0305778,11.1215867 C63.5694222,11.5425595 62.9052444,11.7448543 62.0280889,11.7448543 C60.4899556,11.7448543 59.3703111,10.8918681 58.7416889,9.23219558 L57.3614222,9.60223845 C57.6583111,10.2753674 58.1642667,11.2465964 58.8974222,11.9004931 C59.7013333,12.6227712 60.6986667,12.9718011 61.9502222,12.9718011 C63.4321778,12.9718011 64.5571556,12.5889367 65.2945778,11.8224956 C66.0586667,11.0250693 66.2279111,10.0043351 66.2279111,9.29060465 C66.2279111,8.26808967 65.7962667,7.47849868 64.9251556,6.8559434 C64.1642667,6.30924869 63.1804444,5.95736963 62.2222222,5.62899665 C60.6616889,5.09441114 59.1722667,4.58546864 59.1889778,3.27197673 C59.1946667,2.65974989 59.4065778,2.18286115 59.7916444,1.85021434 C60.1845333,1.51258138 60.7438222,1.34376491 61.4641778,1.34376491 C62.2204444,1.34376491 62.8945778,1.55567588 63.4083556,1.96703249 C63.8808889,2.3420615 64.2247111,2.89837233 64.3808,3.52520144 L65.7223111,3.34997422 C65.1338667,1.33984722 63.6952889,0.116818153 61.5029333,0.116818153 L61.5029333,0.116818153 Z M91.8947556,0 L91.8947556,11.5108619 C91.8947556,12.079638 92.1916444,12.4119287 92.4974222,12.6213466 C92.8256,12.8418053 93.3066667,12.9522127 93.9555556,12.9522127 C94.3662222,12.9522127 94.9084444,12.8158061 94.9084444,12.8158061 L94.9084444,11.783675 C94.7456,11.7936473 94.6016,11.8032634 94.4419556,11.8032634 C93.4759111,11.8032634 93.3333333,11.425029 93.3333333,11.0044124 L93.3333333,0 L91.8947556,0 Z" id="logo"></path>
                    </g>
                </g>
            </g>
        </g>
    </g>
</svg>