<?xml version="1.0" encoding="UTF-8"?>
<svg width="20px" height="20px" viewBox="0 0 20 20" version="1.1" xmlns="http://www.w3.org/2000/svg" xmlns:xlink="http://www.w3.org/1999/xlink">
    <!-- Generator: Sketch 56.2 (81672) - https://sketch.com -->
    <title>Icon</title>
    <desc>Created with Sketch.</desc>
    <g id="----Icons" stroke="none" stroke-width="1" fill="none" fill-rule="evenodd">
        <g id="Icons-/-Actionable-/-Search" transform="translate(-2.000000, -2.000000)" fill="#333333">
            <path d="M17.4178385,16.2056555 L21.7489487,20.5367656 C22.0836838,20.8715007 22.0836838,21.4142136 21.7489487,21.7489487 C21.4142136,22.0836838 20.8715007,22.0836838 20.5367656,21.7489487 L16.2056555,17.4178385 C14.7055724,18.648894 12.7860908,19.3877551 10.6938776,19.3877551 C5.89200083,19.3877551 2,15.4957543 2,10.6938776 C2,5.89200083 5.89200083,2 10.6938776,2 C15.4957543,2 19.3877551,5.89200083 19.3877551,10.6938776 C19.3877551,12.7860908 18.648894,14.7055724 17.4178385,16.2056555 Z M10.6938776,3.71428571 C6.83877468,3.71428571 3.71428571,6.83877468 3.71428571,10.6938776 C3.71428571,14.5489804 6.83877468,17.6734694 10.6938776,17.6734694 C14.5489804,17.6734694 17.6734694,14.5489804 17.6734694,10.6938776 C17.6734694,6.83877468 14.5489804,3.71428571 10.6938776,3.71428571 Z" id="Icon"></path>
        </g>
    </g>
</svg>