<?xml version="1.0" encoding="UTF-8"?>
<svg width="14px" height="9px" viewBox="0 0 14 9" version="1.1" xmlns="http://www.w3.org/2000/svg" xmlns:xlink="http://www.w3.org/1999/xlink">
    <!-- Generator: Sketch 56.2 (81672) - https://sketch.com -->
    <title>Icon</title>
    <desc>Created with Sketch.</desc>
    <g id="----Icons" stroke="none" stroke-width="1" fill="none" fill-rule="evenodd">
        <g id="Icons-/-Supplemental-/-Sparkline---Down" transform="translate(-5.000000, -8.000000)" fill="#187ABA">
            <path d="M18.4089593,8.00032628 C18.4262602,8.00032628 18.443561,8.00120498 18.4617709,8.00296011 C18.4681439,8.00296011 18.4699644,8.00383656 18.4726964,8.00383656 C18.4899972,8.00559394 18.5063866,8.00734908 18.522776,8.01085935 L18.525508,8.01173804 C18.5428088,8.01437187 18.5601096,8.01876084 18.5774104,8.0231498 L18.5801424,8.0240285 C18.5837834,8.02490719 18.5883382,8.02666233 18.5919793,8.02841746 C18.6047276,8.03192998 18.617476,8.03631895 18.6293129,8.04070791 C18.6347768,8.04246305 18.6402407,8.04509688 18.6466137,8.04773071 C18.6602711,8.05299837 18.6739309,8.05914247 18.6866792,8.06616526 L18.6930523,8.06967554 C18.7076211,8.07669833 18.7212786,8.08459982 18.7349383,8.09337775 C18.7394908,8.09601158 18.7431342,8.0995241 18.7476867,8.10215793 C18.7595236,8.11005717 18.7704514,8.11795866 18.7813769,8.12673883 C18.7868408,8.1311278 18.7913933,8.13463807 18.7959457,8.13902704 C18.8050507,8.14604983 18.8132466,8.15307263 18.8214424,8.16097412 C18.8296383,8.1688756 18.8369227,8.1758984 18.8442072,8.18467633 C18.8496687,8.19082043 18.8551326,8.19608809 18.8605966,8.20223444 C18.867881,8.21101237 18.8751654,8.2197903 18.8824499,8.22857048 C18.8870023,8.23383589 18.8906457,8.23998224 18.8951982,8.2452499 C18.9015712,8.25402783 18.9079442,8.26280576 18.9134081,8.27246239 C18.9179606,8.27948518 18.9225131,8.28738442 18.9261565,8.29440721 C18.9316204,8.30406384 18.9370819,8.31459915 18.9425458,8.32513222 C18.9452778,8.33127857 18.9480098,8.33654398 18.9516508,8.34269033 C18.9580261,8.35761237 18.9643991,8.37341534 18.9698631,8.38833737 C18.975327,8.40501679 18.9798794,8.41994107 18.9835205,8.43486311 C18.9844319,8.44012852 18.9862524,8.44627487 18.9871639,8.45154028 C18.9898958,8.46295429 18.9917164,8.47348735 18.9926278,8.48489911 C18.9935369,8.49192191 18.9944483,8.4989447 18.9953574,8.5059675 C18.9962688,8.51825795 18.9971803,8.5305484 18.9980894,8.54196016 C18.9980894,8.54898296 18.9990008,8.55688444 18.9990008,8.56478368 L19,13.053136 C19.0117491,13.8115978 17.8225613,13.8115978 17.8344029,13.053136 L17.8316709,9.91838522 L12.4157821,15.1397488 C12.1881441,15.3592105 11.8193676,15.3592105 11.5917204,15.1397488 L9.67317543,13.2892368 L6.00555062,16.8251296 C5.45557007,17.3553562 4.63153166,16.5600163 5.1814889,16.0306661 L9.2607716,12.0979011 C9.48840957,11.8784393 9.85718605,11.8784393 10.0848333,12.0979011 L12.0042874,13.9475367 L17.007819,9.12371948 L13.7597775,9.12371948 C12.9739678,9.1342548 12.9739678,7.98953253 13.7597775,8 L18.4089593,8.00032628 Z" id="Icon" transform="translate(12.000000, 12.500000) scale(1, -1) translate(-12.000000, -12.500000) "></path>
        </g>
    </g>
</svg>