<?xml version="1.0" encoding="UTF-8"?>
<svg width="20px" height="20px" viewBox="0 0 20 20" version="1.1" xmlns="http://www.w3.org/2000/svg" xmlns:xlink="http://www.w3.org/1999/xlink">
    <!-- Generator: Sketch 56.2 (81672) - https://sketch.com -->
    <title>Icons / Table / Expander - Right</title>
    <desc>Created with Sketch.</desc>
    <g id="----Elements" stroke="none" stroke-width="1" fill="none" fill-rule="evenodd">
        <g id="Tables-/-~Elements-/-Content-/-Icon" transform="translate(-10.000000, -12.000000)" fill="#187ABA">
            <g id="table/cell/content-(R)/default">
                <g id="Icons-/-Table-/-Expander---Right" transform="translate(8.000000, 10.000000)">
                    <path d="M12,22 C6.4771525,22 2,17.5228475 2,12 C2,6.4771525 6.4771525,2 12,2 C17.5228475,2 22,6.4771525 22,12 C22,17.5228475 17.5228475,22 12,22 Z M9.29289322,16.2928932 C8.90236893,16.6834175 8.90236893,17.3165825 9.29289322,17.7071068 C9.68341751,18.0976311 10.3165825,18.0976311 10.7071068,17.7071068 L15.7071068,12.7071068 C16.0976311,12.3165825 16.0976311,11.6834175 15.7071068,11.2928932 L10.7071068,6.29289322 C10.3165825,5.90236893 9.68341751,5.90236893 9.29289322,6.29289322 C8.90236893,6.68341751 8.90236893,7.31658249 9.29289322,7.70710678 L13.5857864,12 L9.29289322,16.2928932 Z" id="Icon"></path>
                </g>
            </g>
        </g>
    </g>
</svg>