<?xml version="1.0" encoding="UTF-8"?>
<svg width="16px" height="16px" viewBox="0 0 16 16" version="1.1" xmlns="http://www.w3.org/2000/svg" xmlns:xlink="http://www.w3.org/1999/xlink">
    <!-- Generator: Sketch 56.2 (81672) - https://sketch.com -->
    <title>Check mark</title>
    <desc>Created with Sketch.</desc>
    <g id="----Elements" stroke="none" stroke-width="1" fill="none" fill-rule="evenodd">
        <g id="Vertical-options-/-Desktop-/-Complex---Active" transform="translate(-530.000000, -24.000000)">
            <g id="Group-4">
                <g id="Check-mark" transform="translate(530.000000, 24.000000)">
                    <path d="M8,8.8817842e-16 C10.1215079,8.8817842e-16 12.156525,0.842770233 13.6572334,2.34276557 C15.1571373,3.8436569 16,5.87849106 16,8 C16,10.1215079 15.1572288,12.156525 13.6572334,13.6572334 C12.1563421,15.1571373 10.1215079,16 8,16 C5.87849106,16 3.84347405,15.1572288 2.34276557,13.6572334 C0.842861662,12.1563421 8.8817842e-16,10.1215079 8.8817842e-16,8 C8.8817842e-16,5.87849106 0.842770233,3.84347405 2.34276557,2.34276557 C3.8436569,0.842861662 5.87849106,8.8817842e-16 8,8.8817842e-16 Z" id="Path-2" fill="#187ABA"></path>
                    <path d="M6.85500783,11.3551172 C6.72188304,11.3557372 6.59438385,11.303862 6.5,11.2101116 L4,8.71011178 L4.70499196,8.00511982 L6.85507183,10.1500797 L12.0000315,5 L12.7050235,5.70499196 L7.20502381,11.2049916 C7.11252461,11.299366 6.98689582,11.3531164 6.85502383,11.3549916 L6.85500783,11.3551172 Z" id="Fill-2" fill="#FFFFFF"></path>
                </g>
            </g>
        </g>
    </g>
</svg>