<?xml version="1.0" encoding="UTF-8"?>
<svg width="19px" height="16px" viewBox="0 0 19 16" version="1.1" xmlns="http://www.w3.org/2000/svg" xmlns:xlink="http://www.w3.org/1999/xlink">
    <!-- Generator: Sketch 56.2 (81672) - https://sketch.com -->
    <title>Icons / Alerts / Error Inline / Outline</title>
    <desc>Created with Sketch.</desc>
    <g id="----Elements" stroke="none" stroke-width="1" fill="none" fill-rule="evenodd">
        <g id="Notification-/-Message-Box-/-Soft-Warning-/-Header" transform="translate(-19.000000, -20.000000)" fill="#BB831B">
            <g id="Notification-/-Message-Box-/-Information-/-Header">
                <g id="Icons-/-Alerts-/-Warning" transform="translate(16.000000, 16.000000)">
                    <path d="M13.0972282,4.33922531 L21.8962109,18.9215038 C22.181229,19.3938554 21.8455703,20 21.2989827,20 L3.70101735,20 C3.15442972,20 2.81877099,19.3938554 3.10378912,18.9215038 L11.9027718,4.33922531 C12.1756909,3.8869249 12.8243091,3.8869249 13.0972282,4.33922531 Z M4.94901284,18.5822785 L20.0509872,18.5822785 L12.5,6.06826386 L4.94901284,18.5822785 Z M11.8000809,10.3797468 C11.8000809,9.98825385 12.1134454,9.67088608 12.5,9.67088608 C12.8865546,9.67088608 13.1999191,9.98825385 13.1999191,10.3797468 L13.1999191,13.6202532 C13.1999191,14.0117462 12.8865546,14.3291139 12.5,14.3291139 C12.1134454,14.3291139 11.8000809,14.0117462 11.8000809,13.6202532 L11.8000809,10.3797468 Z M12.5,16.8607595 C12.0582233,16.8607595 11.7000925,16.4980535 11.7000925,16.0506329 C11.7000925,15.6032124 12.0582233,15.2405063 12.5,15.2405063 C12.9417767,15.2405063 13.2999075,15.6032124 13.2999075,16.0506329 C13.2999075,16.4980535 12.9417767,16.8607595 12.5,16.8607595 Z" id="Icon"></path>
                </g>
            </g>
        </g>
    </g>
</svg>