<?xml version="1.0" encoding="UTF-8"?>
<svg width="16px" height="18px" viewBox="0 0 16 18" version="1.1" xmlns="http://www.w3.org/2000/svg" xmlns:xlink="http://www.w3.org/1999/xlink">
    <!-- Generator: Sketch 56.2 (81672) - https://sketch.com -->
    <title>Button / Icon / Dark Theme - Default</title>
    <desc>Created with Sketch.</desc>
    <g id="----Components" stroke="none" stroke-width="1" fill="none" fill-rule="evenodd">
        <g id="Header-+-Footer-/-Header-/-~Elements-/-Top-Bar-/-Default---Desktop" transform="translate(-890.000000, -31.000000)">
            <g id="Header">
                <g id="Controls" transform="translate(804.000000, 16.000000)">
                    <g id="Button-/-Icon-/-Light-Theme---Default" transform="translate(70.000000, 0.000000)">
                        <circle id="BG" cx="24" cy="24" r="24"></circle>
                        <g id="Icons-/-Supplemental-/-Not-in-KS-/-Profile" transform="translate(12.000000, 12.000000)" fill="#333333" fill-rule="evenodd">
                            <path d="M11.9946258,12.8181818 C15.8748248,12.8181818 19.1638578,15.8945455 19.4970605,19.8218182 C19.5185574,20.1272727 19.4218212,20.4218182 19.2176002,20.6509091 C19.0133792,20.8690909 18.7231704,21 18.4222131,21 L5.57778691,21 C5.27682964,21 4.98662085,20.88 4.78239985,20.6509091 C4.57817884,20.4218182 4.48144258,20.1272727 4.50293953,19.8218182 C4.82539374,15.8945455 8.11442672,12.8181818 11.9946258,12.8181818 Z M6.86760376,18.8181818 L17.1108993,18.8181818 C16.4122485,16.6036364 14.3485415,15 11.9838773,15 C9.61921305,15 7.55550609,16.6036364 6.86760376,18.8181818 Z M16.2940153,7.36363636 C16.2940153,9.77454545 14.3700385,11.7272727 11.9946258,11.7272727 C9.61921305,11.7272727 7.69523625,9.77454545 7.69523625,7.36363636 C7.69523625,4.95272727 9.61921305,3 11.9946258,3 C14.3700385,3 16.2940153,4.95272727 16.2940153,7.36363636 Z M14.1443205,7.36363636 C14.1443205,6.16363636 13.1769579,5.18181818 11.9946258,5.18181818 C10.8122936,5.18181818 9.844931,6.16363636 9.844931,7.36363636 C9.844931,8.56363636 10.8122936,9.54545455 11.9946258,9.54545455 C13.1769579,9.54545455 14.1443205,8.56363636 14.1443205,7.36363636 Z" id="Icon"></path>
                        </g>
                    </g>
                </g>
            </g>
        </g>
    </g>
</svg>